<?xml version="1.0" encoding="utf-8"?>
<!-- Generator: Adobe Illustrator 21.1.0, SVG Export Plug-In . SVG Version: 6.00 Build 0)  -->
<svg version="1.1" id="Camada_1" xmlns="http://www.w3.org/2000/svg" xmlns:xlink="http://www.w3.org/1999/xlink" x="0px" y="0px"
	 viewBox="0 0 106 45.8" style="enable-background:new 0 0 106 45.8;" xml:space="preserve">
<style type="text/css">
	.st0{enable-background:new    ;}
	.st1{fill:#FFFFFF;}
</style>
<g>
	<g>
		<g class="st0">
			<g>
				<g>
					<path class="st1" d="M66,29.8c-0.1,0-0.2,0.1-0.2,0.1c-1.1,0.6-2.3,1-3.6,1.1c-0.6,0.1-1.1,0.1-1.7,0.1c-3.4-0.1-6.2-1.4-8.4-4
						c-1.3-1.5-2.1-3.3-2.4-5.2c-0.1-0.7-0.2-1.5-0.2-2.3c0.2-5,3.4-9,7.9-10.4c0.7-0.2,1.4-0.4,2.2-0.4c0.7-0.1,1.3-0.1,2,0
						c1.8,0.2,3.5,0.7,5,1.6c2.6,1.7,4.3,4,5,7c0.1,0.6,0.2,1.3,0.3,1.9c0,0.6,0,1.1,0,1.7c0,5.1,0,10.2,0,15.3c0,0.2,0,0.4-0.3,0.6
						c-0.1,0-0.2,0.1-0.3,0.1c-1.6,0-3.2,0-4.7,0c-0.3,0-0.5-0.2-0.5-0.6c0-2.1,0-4.3,0-6.4V29.8z M55.3,20c0,2.9,2.3,5.3,5.3,5.3
						c3,0,5.3-2.4,5.3-5.3c0-3-2.4-5.3-5.3-5.3C57.7,14.7,55.4,17,55.3,20"/>
					<path class="st1" d="M16.5,29.8c-0.3,0.1-0.5,0.3-0.8,0.4c-1,0.5-2.1,0.8-3.2,0.9c-3.9,0.4-7.2-0.8-9.8-3.8
						c-1.4-1.5-2.2-3.4-2.6-5.4C0,21,0,20.1,0,19.2c0.4-4.1,2.4-7.2,6-9.2c1.1-0.6,2.4-1,3.6-1.2c5.7-0.8,11,2.9,12.4,8.4
						c0.2,0.9,0.3,1.7,0.3,2.6c0,3.5,0,7.1,0,10.6c0,0.4-0.2,0.6-0.6,0.6c-1.5,0-3.1,0-4.6,0c-0.4,0-0.6-0.2-0.6-0.6
						C16.5,30.3,16.5,30.1,16.5,29.8 M5.9,20c-0.1,2.7,2.2,5.3,5.3,5.3c3,0,5.3-2.5,5.3-5.3c0-2.9-2.3-5.3-5.3-5.3
						C8.1,14.7,5.8,17.2,5.9,20"/>
					<path class="st1" d="M106,20c0,6-4.8,11.2-11.3,11.2c-6.2-0.1-11.1-5.1-11.1-11.3c0-6,4.9-11.2,11.4-11.1
						C101.2,8.9,106,14,106,20 M100.1,20c0-2.8-2.2-5.3-5.3-5.3c-3,0-5.3,2.4-5.3,5.2c-0.1,2.9,2.2,5.4,5.3,5.4
						C97.9,25.3,100.2,22.8,100.1,20"/>
					<path class="st1" d="M25,20c0-5.1,3.5-9.6,8.5-10.9c0.7-0.2,1.4-0.3,2-0.3c2.9-0.1,5.5,0.7,7.7,2.5c1.6,1.3,2.8,3,3.5,5
						c0.2,0.4,0,0.7-0.4,0.8c-1.5,0.4-3,0.8-4.5,1.2c-0.3,0.1-0.6,0-0.7-0.4c-0.4-0.8-0.9-1.6-1.6-2.1c-0.8-0.7-1.8-1.1-2.9-1.2
						c-2.6-0.2-4.9,1.5-5.5,3.9c-0.9,3,1.1,6.1,4.2,6.7c2.5,0.4,4.9-0.9,5.8-3.2c0.2-0.4,0.4-0.5,0.8-0.4c1.5,0.4,2.9,0.8,4.4,1.1
						c0,0,0.1,0,0.1,0c0.4,0.1,0.6,0.4,0.4,0.8c-0.3,1-0.8,1.9-1.4,2.7c-1.8,2.5-4.2,4.1-7.3,4.7c-0.7,0.1-1.4,0.2-2.2,0.2
						c-2.8-0.1-5.3-1.1-7.4-3c-1.8-1.7-3-3.8-3.4-6.2C25,21.3,25,20.6,25,20C24.9,20,24.9,20,25,20"/>
					<path class="st1" d="M80.7,20v10.5c0,0.5-0.2,0.7-0.7,0.7c-1.5,0-3,0-4.5,0c-0.5,0-0.7-0.2-0.7-0.7c0-7,0-14,0-21.1
						c0-0.5,0.2-0.6,0.7-0.6H80c0.5,0,0.7,0.2,0.7,0.7V20z"/>
				</g>
				<g>
					<g class="st0">
						<g>
							<g>
								<path class="st1" d="M66.1,45.1v-4.6c0-0.3,0.3-0.6,0.6-0.6h4.6c0.2,0,0.5,0.2,0.6,0.4c0.1,0.2,0,0.5-0.1,0.7l-4.6,4.6
									c-0.2,0.2-0.4,0.2-0.7,0.1C66.2,45.6,66.1,45.4,66.1,45.1"/>
							</g>
						</g>
					</g>
				</g>
				<g>
					<g class="st0">
						<g>
							<g>
								<path class="st1" d="M80.8,0.6l0,4.6c0,0.3-0.3,0.6-0.6,0.6l-4.6,0c-0.2,0-0.5-0.2-0.6-0.4c-0.1-0.2,0-0.5,0.1-0.7l4.6-4.6
									C79.9,0,80.2,0,80.4,0C80.6,0.1,80.8,0.4,80.8,0.6"/>
							</g>
						</g>
					</g>
				</g>
			</g>
		</g>
	</g>
</g>
</svg>
